<mxfile host="app.diagrams.net" modified="2022-05-02T08:59:53.549Z" agent="5.0 (Macintosh; Intel Mac OS X 10_15_7) AppleWebKit/537.36 (KHTML, like Gecko) Chrome/100.0.4896.127 Safari/537.36" etag="_XD2SKynUVCmN_yNLw_C" version="17.5.0" type="github">
  <diagram id="C5RBs43oDa-KdzZeNtuy" name="Page-1">
    <mxGraphModel dx="1764" dy="1864" grid="1" gridSize="10" guides="1" tooltips="1" connect="1" arrows="1" fold="1" page="1" pageScale="1" pageWidth="1169" pageHeight="827" math="0" shadow="0">
      <root>
        <mxCell id="WIyWlLk6GJQsqaUBKTNV-0" />
        <mxCell id="WIyWlLk6GJQsqaUBKTNV-1" parent="WIyWlLk6GJQsqaUBKTNV-0" />
        <mxCell id="6ciOJ90z9ZoDxSyZLeu0-9" value="" style="edgeStyle=orthogonalEdgeStyle;rounded=0;orthogonalLoop=1;jettySize=auto;html=1;fontSize=18;fillColor=#1ba1e2;strokeColor=#006EAF;" edge="1" parent="WIyWlLk6GJQsqaUBKTNV-1" source="6ciOJ90z9ZoDxSyZLeu0-1" target="6ciOJ90z9ZoDxSyZLeu0-8">
          <mxGeometry relative="1" as="geometry" />
        </mxCell>
        <mxCell id="6ciOJ90z9ZoDxSyZLeu0-48" style="edgeStyle=orthogonalEdgeStyle;rounded=0;orthogonalLoop=1;jettySize=auto;html=1;exitX=1;exitY=0.5;exitDx=0;exitDy=0;entryX=0.001;entryY=0.51;entryDx=0;entryDy=0;entryPerimeter=0;fontSize=18;" edge="1" parent="WIyWlLk6GJQsqaUBKTNV-1" source="6ciOJ90z9ZoDxSyZLeu0-1" target="6ciOJ90z9ZoDxSyZLeu0-43">
          <mxGeometry relative="1" as="geometry" />
        </mxCell>
        <mxCell id="6ciOJ90z9ZoDxSyZLeu0-1" value="登录" style="rounded=1;whiteSpace=wrap;html=1;fontSize=18;fillColor=#1ba1e2;fontColor=#ffffff;strokeColor=#006EAF;" vertex="1" parent="WIyWlLk6GJQsqaUBKTNV-1">
          <mxGeometry x="130" y="285" width="50" height="30" as="geometry" />
        </mxCell>
        <mxCell id="6ciOJ90z9ZoDxSyZLeu0-2" value="客户端首屏" style="whiteSpace=wrap;html=1;rounded=1;fontSize=18;fillColor=#fff2cc;strokeColor=#d6b656;" vertex="1" parent="WIyWlLk6GJQsqaUBKTNV-1">
          <mxGeometry x="430" y="270" width="120" height="60" as="geometry" />
        </mxCell>
        <mxCell id="6ciOJ90z9ZoDxSyZLeu0-8" value="注册" style="whiteSpace=wrap;html=1;fontSize=18;rounded=1;fillColor=#f0a30a;fontColor=#000000;strokeColor=#BD7000;" vertex="1" parent="WIyWlLk6GJQsqaUBKTNV-1">
          <mxGeometry x="127.5" y="175" width="55" height="30" as="geometry" />
        </mxCell>
        <mxCell id="6ciOJ90z9ZoDxSyZLeu0-11" value="" style="endArrow=classic;html=1;rounded=0;fontSize=18;exitX=0.25;exitY=1;exitDx=0;exitDy=0;entryX=0.225;entryY=0;entryDx=0;entryDy=0;entryPerimeter=0;fillColor=#1ba1e2;strokeColor=#006EAF;" edge="1" parent="WIyWlLk6GJQsqaUBKTNV-1" source="6ciOJ90z9ZoDxSyZLeu0-8" target="6ciOJ90z9ZoDxSyZLeu0-1">
          <mxGeometry width="50" height="50" relative="1" as="geometry">
            <mxPoint x="80" y="285" as="sourcePoint" />
            <mxPoint x="130" y="235" as="targetPoint" />
          </mxGeometry>
        </mxCell>
        <mxCell id="6ciOJ90z9ZoDxSyZLeu0-37" value="元数据" style="edgeStyle=orthogonalEdgeStyle;rounded=0;orthogonalLoop=1;jettySize=auto;html=1;entryX=0;entryY=0.5;entryDx=0;entryDy=0;fontSize=18;exitX=0.5;exitY=1;exitDx=0;exitDy=0;" edge="1" parent="WIyWlLk6GJQsqaUBKTNV-1" source="6ciOJ90z9ZoDxSyZLeu0-17" target="6ciOJ90z9ZoDxSyZLeu0-36">
          <mxGeometry relative="1" as="geometry">
            <mxPoint x="770" y="260" as="sourcePoint" />
          </mxGeometry>
        </mxCell>
        <mxCell id="6ciOJ90z9ZoDxSyZLeu0-38" style="edgeStyle=orthogonalEdgeStyle;rounded=0;orthogonalLoop=1;jettySize=auto;html=1;exitX=1;exitY=0.75;exitDx=0;exitDy=0;entryX=0.5;entryY=0;entryDx=0;entryDy=0;fontSize=18;" edge="1" parent="WIyWlLk6GJQsqaUBKTNV-1" source="6ciOJ90z9ZoDxSyZLeu0-17" target="6ciOJ90z9ZoDxSyZLeu0-36">
          <mxGeometry relative="1" as="geometry" />
        </mxCell>
        <mxCell id="6ciOJ90z9ZoDxSyZLeu0-40" value="查询结果元数据" style="edgeLabel;html=1;align=center;verticalAlign=middle;resizable=0;points=[];fontSize=18;" vertex="1" connectable="0" parent="6ciOJ90z9ZoDxSyZLeu0-38">
          <mxGeometry x="-0.2122" y="-2" relative="1" as="geometry">
            <mxPoint x="-1" as="offset" />
          </mxGeometry>
        </mxCell>
        <mxCell id="6ciOJ90z9ZoDxSyZLeu0-17" value="文件预览" style="rounded=0;whiteSpace=wrap;html=1;fontSize=18;fillColor=#dae8fc;strokeColor=#6c8ebf;" vertex="1" parent="WIyWlLk6GJQsqaUBKTNV-1">
          <mxGeometry x="690" y="170" width="120" height="60" as="geometry" />
        </mxCell>
        <mxCell id="6ciOJ90z9ZoDxSyZLeu0-79" style="edgeStyle=orthogonalEdgeStyle;rounded=0;orthogonalLoop=1;jettySize=auto;html=1;exitX=0.5;exitY=0;exitDx=0;exitDy=0;entryX=0.25;entryY=1;entryDx=0;entryDy=0;fontSize=18;" edge="1" parent="WIyWlLk6GJQsqaUBKTNV-1" source="6ciOJ90z9ZoDxSyZLeu0-18" target="6ciOJ90z9ZoDxSyZLeu0-17">
          <mxGeometry relative="1" as="geometry">
            <Array as="points">
              <mxPoint x="720" y="460" />
            </Array>
          </mxGeometry>
        </mxCell>
        <mxCell id="6ciOJ90z9ZoDxSyZLeu0-80" value="更新元数据" style="edgeLabel;html=1;align=center;verticalAlign=middle;resizable=0;points=[];fontSize=18;" vertex="1" connectable="0" parent="6ciOJ90z9ZoDxSyZLeu0-79">
          <mxGeometry x="-0.3154" y="2" relative="1" as="geometry">
            <mxPoint as="offset" />
          </mxGeometry>
        </mxCell>
        <mxCell id="6ciOJ90z9ZoDxSyZLeu0-18" value="数据上云" style="rounded=0;whiteSpace=wrap;html=1;fontSize=18;fillColor=#dae8fc;strokeColor=#6c8ebf;" vertex="1" parent="WIyWlLk6GJQsqaUBKTNV-1">
          <mxGeometry x="690" y="460" width="120" height="60" as="geometry" />
        </mxCell>
        <mxCell id="6ciOJ90z9ZoDxSyZLeu0-84" style="edgeStyle=orthogonalEdgeStyle;rounded=0;orthogonalLoop=1;jettySize=auto;html=1;exitX=1;exitY=0.5;exitDx=0;exitDy=0;entryX=0;entryY=0.5;entryDx=0;entryDy=0;fontSize=18;" edge="1" parent="WIyWlLk6GJQsqaUBKTNV-1" source="6ciOJ90z9ZoDxSyZLeu0-19" target="6ciOJ90z9ZoDxSyZLeu0-81">
          <mxGeometry relative="1" as="geometry" />
        </mxCell>
        <mxCell id="6ciOJ90z9ZoDxSyZLeu0-19" value="地图总览" style="rounded=0;whiteSpace=wrap;html=1;fontSize=18;fillColor=#dae8fc;strokeColor=#6c8ebf;" vertex="1" parent="WIyWlLk6GJQsqaUBKTNV-1">
          <mxGeometry x="690" y="640" width="120" height="60" as="geometry" />
        </mxCell>
        <mxCell id="6ciOJ90z9ZoDxSyZLeu0-21" value="" style="edgeStyle=elbowEdgeStyle;elbow=horizontal;endArrow=classic;html=1;rounded=0;fontSize=18;entryX=0;entryY=0.5;entryDx=0;entryDy=0;" edge="1" parent="WIyWlLk6GJQsqaUBKTNV-1" source="6ciOJ90z9ZoDxSyZLeu0-2" target="6ciOJ90z9ZoDxSyZLeu0-17">
          <mxGeometry width="50" height="50" relative="1" as="geometry">
            <mxPoint x="550" y="335" as="sourcePoint" />
            <mxPoint x="620.7106781186548" y="285" as="targetPoint" />
          </mxGeometry>
        </mxCell>
        <mxCell id="6ciOJ90z9ZoDxSyZLeu0-22" value="" style="edgeStyle=elbowEdgeStyle;elbow=horizontal;endArrow=classic;html=1;rounded=0;fontSize=18;exitX=1;exitY=0.5;exitDx=0;exitDy=0;entryX=0;entryY=0.5;entryDx=0;entryDy=0;" edge="1" parent="WIyWlLk6GJQsqaUBKTNV-1" source="6ciOJ90z9ZoDxSyZLeu0-2" target="6ciOJ90z9ZoDxSyZLeu0-18">
          <mxGeometry width="50" height="50" relative="1" as="geometry">
            <mxPoint x="580" y="330" as="sourcePoint" />
            <mxPoint x="630" y="280" as="targetPoint" />
          </mxGeometry>
        </mxCell>
        <mxCell id="6ciOJ90z9ZoDxSyZLeu0-75" value="文件" style="edgeLabel;html=1;align=center;verticalAlign=middle;resizable=0;points=[];fontSize=18;" vertex="1" connectable="0" parent="6ciOJ90z9ZoDxSyZLeu0-22">
          <mxGeometry x="0.7432" y="-2" relative="1" as="geometry">
            <mxPoint as="offset" />
          </mxGeometry>
        </mxCell>
        <mxCell id="6ciOJ90z9ZoDxSyZLeu0-23" value="" style="edgeStyle=elbowEdgeStyle;elbow=horizontal;endArrow=classic;html=1;rounded=0;fontSize=18;exitX=1;exitY=0.5;exitDx=0;exitDy=0;entryX=0;entryY=0.5;entryDx=0;entryDy=0;" edge="1" parent="WIyWlLk6GJQsqaUBKTNV-1" source="6ciOJ90z9ZoDxSyZLeu0-2" target="6ciOJ90z9ZoDxSyZLeu0-19">
          <mxGeometry width="50" height="50" relative="1" as="geometry">
            <mxPoint x="590" y="450" as="sourcePoint" />
            <mxPoint x="640" y="400" as="targetPoint" />
          </mxGeometry>
        </mxCell>
        <mxCell id="6ciOJ90z9ZoDxSyZLeu0-33" style="edgeStyle=orthogonalEdgeStyle;rounded=0;orthogonalLoop=1;jettySize=auto;html=1;exitX=1;exitY=0.5;exitDx=0;exitDy=0;entryX=1;entryY=0.25;entryDx=0;entryDy=0;fontSize=18;" edge="1" parent="WIyWlLk6GJQsqaUBKTNV-1" source="6ciOJ90z9ZoDxSyZLeu0-24" target="6ciOJ90z9ZoDxSyZLeu0-17">
          <mxGeometry relative="1" as="geometry" />
        </mxCell>
        <mxCell id="6ciOJ90z9ZoDxSyZLeu0-34" value="查询结果" style="edgeLabel;html=1;align=center;verticalAlign=middle;resizable=0;points=[];fontSize=18;" vertex="1" connectable="0" parent="6ciOJ90z9ZoDxSyZLeu0-33">
          <mxGeometry x="-0.0052" y="-4" relative="1" as="geometry">
            <mxPoint x="-1" as="offset" />
          </mxGeometry>
        </mxCell>
        <mxCell id="6ciOJ90z9ZoDxSyZLeu0-24" value="查询区" style="rounded=0;whiteSpace=wrap;html=1;fontSize=18;fillColor=#647687;fontColor=#ffffff;strokeColor=#314354;" vertex="1" parent="WIyWlLk6GJQsqaUBKTNV-1">
          <mxGeometry x="910" y="100" width="80" height="35" as="geometry" />
        </mxCell>
        <mxCell id="6ciOJ90z9ZoDxSyZLeu0-28" value="" style="endArrow=classic;html=1;rounded=0;fontSize=18;exitX=0.5;exitY=0;exitDx=0;exitDy=0;entryX=-0.019;entryY=0.395;entryDx=0;entryDy=0;entryPerimeter=0;" edge="1" parent="WIyWlLk6GJQsqaUBKTNV-1" source="6ciOJ90z9ZoDxSyZLeu0-17" target="6ciOJ90z9ZoDxSyZLeu0-24">
          <mxGeometry relative="1" as="geometry">
            <mxPoint x="700" y="130" as="sourcePoint" />
            <mxPoint x="860" y="130" as="targetPoint" />
            <Array as="points">
              <mxPoint x="750" y="114" />
            </Array>
          </mxGeometry>
        </mxCell>
        <mxCell id="6ciOJ90z9ZoDxSyZLeu0-29" value="props" style="edgeLabel;resizable=0;html=1;align=center;verticalAlign=middle;fontSize=18;" connectable="0" vertex="1" parent="6ciOJ90z9ZoDxSyZLeu0-28">
          <mxGeometry relative="1" as="geometry" />
        </mxCell>
        <mxCell id="6ciOJ90z9ZoDxSyZLeu0-30" value="元数据" style="edgeLabel;resizable=0;html=1;align=left;verticalAlign=bottom;fontSize=18;" connectable="0" vertex="1" parent="6ciOJ90z9ZoDxSyZLeu0-28">
          <mxGeometry x="-1" relative="1" as="geometry" />
        </mxCell>
        <mxCell id="6ciOJ90z9ZoDxSyZLeu0-36" value="图片展示区" style="rounded=0;whiteSpace=wrap;html=1;fontSize=18;fillColor=#647687;fontColor=#ffffff;strokeColor=#314354;" vertex="1" parent="WIyWlLk6GJQsqaUBKTNV-1">
          <mxGeometry x="950" y="240" width="120" height="40" as="geometry" />
        </mxCell>
        <mxCell id="6ciOJ90z9ZoDxSyZLeu0-41" value="" style="endArrow=classic;html=1;rounded=0;fontSize=18;exitX=0.5;exitY=1;exitDx=0;exitDy=0;entryX=0.5;entryY=0;entryDx=0;entryDy=0;" edge="1" parent="WIyWlLk6GJQsqaUBKTNV-1" source="6ciOJ90z9ZoDxSyZLeu0-36" target="6ciOJ90z9ZoDxSyZLeu0-53">
          <mxGeometry relative="1" as="geometry">
            <mxPoint x="1030" y="330" as="sourcePoint" />
            <mxPoint x="1010" y="340" as="targetPoint" />
          </mxGeometry>
        </mxCell>
        <mxCell id="6ciOJ90z9ZoDxSyZLeu0-42" value="选中" style="edgeLabel;resizable=0;html=1;align=center;verticalAlign=middle;fontSize=18;" connectable="0" vertex="1" parent="6ciOJ90z9ZoDxSyZLeu0-41">
          <mxGeometry relative="1" as="geometry" />
        </mxCell>
        <mxCell id="6ciOJ90z9ZoDxSyZLeu0-43" value="登陆成功？" style="html=1;whiteSpace=wrap;aspect=fixed;shape=isoRectangle;fontSize=18;fillColor=#f5f5f5;gradientColor=#b3b3b3;strokeColor=#666666;" vertex="1" parent="WIyWlLk6GJQsqaUBKTNV-1">
          <mxGeometry x="230" y="264" width="120" height="72" as="geometry" />
        </mxCell>
        <mxCell id="6ciOJ90z9ZoDxSyZLeu0-49" value="yes" style="edgeStyle=elbowEdgeStyle;elbow=vertical;endArrow=classic;html=1;rounded=0;fontSize=18;exitX=0.986;exitY=0.499;exitDx=0;exitDy=0;exitPerimeter=0;entryX=0;entryY=0.5;entryDx=0;entryDy=0;" edge="1" parent="WIyWlLk6GJQsqaUBKTNV-1" source="6ciOJ90z9ZoDxSyZLeu0-43" target="6ciOJ90z9ZoDxSyZLeu0-2">
          <mxGeometry width="50" height="50" relative="1" as="geometry">
            <mxPoint x="350" y="350" as="sourcePoint" />
            <mxPoint x="400" y="300" as="targetPoint" />
          </mxGeometry>
        </mxCell>
        <mxCell id="6ciOJ90z9ZoDxSyZLeu0-52" value="no" style="edgeStyle=elbowEdgeStyle;elbow=horizontal;endArrow=classic;html=1;rounded=0;fontSize=18;entryX=0.5;entryY=1;entryDx=0;entryDy=0;exitX=0.499;exitY=0.998;exitDx=0;exitDy=0;exitPerimeter=0;" edge="1" parent="WIyWlLk6GJQsqaUBKTNV-1" source="6ciOJ90z9ZoDxSyZLeu0-43" target="6ciOJ90z9ZoDxSyZLeu0-1">
          <mxGeometry width="50" height="50" relative="1" as="geometry">
            <mxPoint x="150" y="410" as="sourcePoint" />
            <mxPoint x="200" y="360" as="targetPoint" />
            <Array as="points">
              <mxPoint x="210" y="370" />
            </Array>
          </mxGeometry>
        </mxCell>
        <mxCell id="6ciOJ90z9ZoDxSyZLeu0-59" value="" style="edgeStyle=orthogonalEdgeStyle;rounded=0;orthogonalLoop=1;jettySize=auto;html=1;fontSize=18;entryX=0;entryY=0.5;entryDx=0;entryDy=0;" edge="1" parent="WIyWlLk6GJQsqaUBKTNV-1" source="6ciOJ90z9ZoDxSyZLeu0-53" target="6ciOJ90z9ZoDxSyZLeu0-58">
          <mxGeometry relative="1" as="geometry">
            <mxPoint x="1140" y="310" as="targetPoint" />
            <Array as="points">
              <mxPoint x="1090" y="365" />
              <mxPoint x="1090" y="292" />
            </Array>
          </mxGeometry>
        </mxCell>
        <mxCell id="6ciOJ90z9ZoDxSyZLeu0-53" value="操作工具栏" style="rounded=0;whiteSpace=wrap;html=1;fontSize=18;fillColor=#647687;fontColor=#ffffff;strokeColor=#314354;" vertex="1" parent="WIyWlLk6GJQsqaUBKTNV-1">
          <mxGeometry x="950" y="350" width="120" height="30" as="geometry" />
        </mxCell>
        <mxCell id="6ciOJ90z9ZoDxSyZLeu0-55" value="" style="edgeStyle=elbowEdgeStyle;elbow=vertical;endArrow=classic;html=1;rounded=0;fontSize=18;exitX=0;exitY=0.5;exitDx=0;exitDy=0;entryX=0.25;entryY=1;entryDx=0;entryDy=0;" edge="1" parent="WIyWlLk6GJQsqaUBKTNV-1" source="6ciOJ90z9ZoDxSyZLeu0-53" target="6ciOJ90z9ZoDxSyZLeu0-17">
          <mxGeometry width="50" height="50" relative="1" as="geometry">
            <mxPoint x="820" y="380" as="sourcePoint" />
            <mxPoint x="870" y="330" as="targetPoint" />
            <Array as="points">
              <mxPoint x="800" y="330" />
            </Array>
          </mxGeometry>
        </mxCell>
        <mxCell id="6ciOJ90z9ZoDxSyZLeu0-57" value="元数据操作" style="edgeLabel;html=1;align=center;verticalAlign=middle;resizable=0;points=[];fontSize=18;" vertex="1" connectable="0" parent="6ciOJ90z9ZoDxSyZLeu0-55">
          <mxGeometry x="-0.0031" y="1" relative="1" as="geometry">
            <mxPoint as="offset" />
          </mxGeometry>
        </mxCell>
        <mxCell id="6ciOJ90z9ZoDxSyZLeu0-58" value="下载" style="rounded=0;whiteSpace=wrap;html=1;fontSize=18;fillColor=#a0522d;fontColor=#ffffff;strokeColor=#6D1F00;" vertex="1" parent="WIyWlLk6GJQsqaUBKTNV-1">
          <mxGeometry x="1200" y="280" width="60" height="24" as="geometry" />
        </mxCell>
        <mxCell id="6ciOJ90z9ZoDxSyZLeu0-60" value="" style="edgeStyle=elbowEdgeStyle;elbow=horizontal;endArrow=classic;html=1;rounded=0;fontSize=18;exitX=1;exitY=0.5;exitDx=0;exitDy=0;entryX=0;entryY=0.5;entryDx=0;entryDy=0;" edge="1" parent="WIyWlLk6GJQsqaUBKTNV-1" source="6ciOJ90z9ZoDxSyZLeu0-53" target="6ciOJ90z9ZoDxSyZLeu0-61">
          <mxGeometry width="50" height="50" relative="1" as="geometry">
            <mxPoint x="1080" y="370" as="sourcePoint" />
            <mxPoint x="1140" y="350" as="targetPoint" />
          </mxGeometry>
        </mxCell>
        <mxCell id="6ciOJ90z9ZoDxSyZLeu0-61" value="删除" style="rounded=0;whiteSpace=wrap;html=1;fontSize=18;fillColor=#a0522d;fontColor=#ffffff;strokeColor=#6D1F00;" vertex="1" parent="WIyWlLk6GJQsqaUBKTNV-1">
          <mxGeometry x="1200" y="336" width="60" height="24" as="geometry" />
        </mxCell>
        <mxCell id="6ciOJ90z9ZoDxSyZLeu0-62" value="变更历史文件" style="rounded=0;whiteSpace=wrap;html=1;fontSize=18;fillColor=#a0522d;fontColor=#ffffff;strokeColor=#6D1F00;" vertex="1" parent="WIyWlLk6GJQsqaUBKTNV-1">
          <mxGeometry x="1150" y="386" width="120" height="27" as="geometry" />
        </mxCell>
        <mxCell id="6ciOJ90z9ZoDxSyZLeu0-63" value="" style="edgeStyle=elbowEdgeStyle;elbow=horizontal;endArrow=classic;html=1;rounded=0;fontSize=18;exitX=1;exitY=0.5;exitDx=0;exitDy=0;entryX=-0.003;entryY=0.4;entryDx=0;entryDy=0;entryPerimeter=0;" edge="1" parent="WIyWlLk6GJQsqaUBKTNV-1" source="6ciOJ90z9ZoDxSyZLeu0-53" target="6ciOJ90z9ZoDxSyZLeu0-62">
          <mxGeometry width="50" height="50" relative="1" as="geometry">
            <mxPoint x="1080" y="375" as="sourcePoint" />
            <mxPoint x="1210" y="337" as="targetPoint" />
            <Array as="points">
              <mxPoint x="1090" y="380" />
            </Array>
          </mxGeometry>
        </mxCell>
        <mxCell id="6ciOJ90z9ZoDxSyZLeu0-74" style="edgeStyle=orthogonalEdgeStyle;rounded=0;orthogonalLoop=1;jettySize=auto;html=1;exitX=1;exitY=0.5;exitDx=0;exitDy=0;fontSize=18;" edge="1" parent="WIyWlLk6GJQsqaUBKTNV-1" source="6ciOJ90z9ZoDxSyZLeu0-66">
          <mxGeometry relative="1" as="geometry">
            <mxPoint x="620" y="489.75" as="targetPoint" />
          </mxGeometry>
        </mxCell>
        <mxCell id="6ciOJ90z9ZoDxSyZLeu0-66" value="压缩算法" style="shape=ext;double=1;rounded=0;whiteSpace=wrap;html=1;fontSize=18;fillColor=#60a917;fontColor=#ffffff;strokeColor=#2D7600;" vertex="1" parent="WIyWlLk6GJQsqaUBKTNV-1">
          <mxGeometry x="510" y="465" width="80" height="50" as="geometry" />
        </mxCell>
        <mxCell id="6ciOJ90z9ZoDxSyZLeu0-70" value="" style="shape=document;whiteSpace=wrap;html=1;boundedLbl=1;fontSize=18;fillColor=#d5e8d4;strokeColor=#82b366;" vertex="1" parent="WIyWlLk6GJQsqaUBKTNV-1">
          <mxGeometry x="340" y="458" width="70" height="50" as="geometry" />
        </mxCell>
        <mxCell id="6ciOJ90z9ZoDxSyZLeu0-71" value="" style="shape=document;whiteSpace=wrap;html=1;boundedLbl=1;fontSize=18;fillColor=#d5e8d4;strokeColor=#82b366;" vertex="1" parent="WIyWlLk6GJQsqaUBKTNV-1">
          <mxGeometry x="350" y="468" width="70" height="50" as="geometry" />
        </mxCell>
        <mxCell id="6ciOJ90z9ZoDxSyZLeu0-73" style="edgeStyle=orthogonalEdgeStyle;rounded=0;orthogonalLoop=1;jettySize=auto;html=1;exitX=1;exitY=0.25;exitDx=0;exitDy=0;entryX=0;entryY=0.5;entryDx=0;entryDy=0;fontSize=18;" edge="1" parent="WIyWlLk6GJQsqaUBKTNV-1" source="6ciOJ90z9ZoDxSyZLeu0-72" target="6ciOJ90z9ZoDxSyZLeu0-66">
          <mxGeometry relative="1" as="geometry" />
        </mxCell>
        <mxCell id="6ciOJ90z9ZoDxSyZLeu0-72" value="影像" style="shape=document;whiteSpace=wrap;html=1;boundedLbl=1;fontSize=18;fillColor=#d5e8d4;strokeColor=#82b366;" vertex="1" parent="WIyWlLk6GJQsqaUBKTNV-1">
          <mxGeometry x="360" y="478" width="70" height="50" as="geometry" />
        </mxCell>
        <mxCell id="6ciOJ90z9ZoDxSyZLeu0-76" style="edgeStyle=orthogonalEdgeStyle;rounded=0;orthogonalLoop=1;jettySize=auto;html=1;exitX=0.5;exitY=1;exitDx=0;exitDy=0;entryX=1;entryY=0.5;entryDx=0;entryDy=0;fontSize=18;" edge="1" parent="WIyWlLk6GJQsqaUBKTNV-1" source="6ciOJ90z9ZoDxSyZLeu0-18" target="6ciOJ90z9ZoDxSyZLeu0-18">
          <mxGeometry relative="1" as="geometry">
            <Array as="points">
              <mxPoint x="750" y="580" />
              <mxPoint x="890" y="580" />
              <mxPoint x="890" y="490" />
            </Array>
          </mxGeometry>
        </mxCell>
        <mxCell id="6ciOJ90z9ZoDxSyZLeu0-77" value="HASH校验" style="edgeLabel;html=1;align=center;verticalAlign=middle;resizable=0;points=[];fontSize=18;" vertex="1" connectable="0" parent="6ciOJ90z9ZoDxSyZLeu0-76">
          <mxGeometry x="-0.4453" y="3" relative="1" as="geometry">
            <mxPoint as="offset" />
          </mxGeometry>
        </mxCell>
        <mxCell id="6ciOJ90z9ZoDxSyZLeu0-78" value="经纬度录入" style="edgeLabel;html=1;align=center;verticalAlign=middle;resizable=0;points=[];fontSize=18;" vertex="1" connectable="0" parent="6ciOJ90z9ZoDxSyZLeu0-76">
          <mxGeometry x="0.3797" y="-1" relative="1" as="geometry">
            <mxPoint as="offset" />
          </mxGeometry>
        </mxCell>
        <mxCell id="6ciOJ90z9ZoDxSyZLeu0-85" style="edgeStyle=orthogonalEdgeStyle;rounded=0;orthogonalLoop=1;jettySize=auto;html=1;exitX=1;exitY=0.5;exitDx=0;exitDy=0;entryX=0;entryY=0.5;entryDx=0;entryDy=0;fontSize=18;" edge="1" parent="WIyWlLk6GJQsqaUBKTNV-1" source="6ciOJ90z9ZoDxSyZLeu0-81" target="6ciOJ90z9ZoDxSyZLeu0-82">
          <mxGeometry relative="1" as="geometry" />
        </mxCell>
        <mxCell id="6ciOJ90z9ZoDxSyZLeu0-89" style="edgeStyle=orthogonalEdgeStyle;rounded=0;orthogonalLoop=1;jettySize=auto;html=1;exitX=1;exitY=0.5;exitDx=0;exitDy=0;entryX=0;entryY=0.5;entryDx=0;entryDy=0;fontSize=18;" edge="1" parent="WIyWlLk6GJQsqaUBKTNV-1" source="6ciOJ90z9ZoDxSyZLeu0-81" target="6ciOJ90z9ZoDxSyZLeu0-88">
          <mxGeometry relative="1" as="geometry" />
        </mxCell>
        <mxCell id="6ciOJ90z9ZoDxSyZLeu0-90" value="" style="edgeStyle=orthogonalEdgeStyle;rounded=0;orthogonalLoop=1;jettySize=auto;html=1;fontSize=18;" edge="1" parent="WIyWlLk6GJQsqaUBKTNV-1" source="6ciOJ90z9ZoDxSyZLeu0-81" target="6ciOJ90z9ZoDxSyZLeu0-83">
          <mxGeometry relative="1" as="geometry">
            <Array as="points">
              <mxPoint x="1020" y="670" />
              <mxPoint x="1020" y="670" />
            </Array>
          </mxGeometry>
        </mxCell>
        <mxCell id="6ciOJ90z9ZoDxSyZLeu0-81" value="地图iframe" style="rounded=0;whiteSpace=wrap;html=1;fontSize=18;fillColor=#d5e8d4;gradientColor=#97d077;strokeColor=#82b366;" vertex="1" parent="WIyWlLk6GJQsqaUBKTNV-1">
          <mxGeometry x="830" y="650" width="120" height="40" as="geometry" />
        </mxCell>
        <mxCell id="6ciOJ90z9ZoDxSyZLeu0-82" value="标绘组件&lt;span style=&quot;color: rgba(0 , 0 , 0 , 0) ; font-family: monospace ; font-size: 0px&quot;&gt;%3CmxGraphModel%3E%3Croot%3E%3CmxCell%20id%3D%220%22%2F%3E%3CmxCell%20id%3D%221%22%20parent%3D%220%22%2F%3E%3CmxCell%20id%3D%222%22%20value%3D%22%E5%9C%B0%E5%9B%BEiframe%22%20style%3D%22rounded%3D0%3BwhiteSpace%3Dwrap%3Bhtml%3D1%3BfontSize%3D18%3B%22%20vertex%3D%221%22%20parent%3D%221%22%3E%3CmxGeometry%20x%3D%22880%22%20y%3D%22640%22%20width%3D%22120%22%20height%3D%2260%22%20as%3D%22geometry%22%2F%3E%3C%2FmxCell%3E%3C%2Froot%3E%3C%2FmxGraphModel%3E&lt;/span&gt;" style="rounded=0;whiteSpace=wrap;html=1;fontSize=18;fillColor=#d5e8d4;gradientColor=#97d077;strokeColor=#82b366;" vertex="1" parent="WIyWlLk6GJQsqaUBKTNV-1">
          <mxGeometry x="1040" y="600" width="120" height="40" as="geometry" />
        </mxCell>
        <mxCell id="6ciOJ90z9ZoDxSyZLeu0-83" value="POI地物搜索组件" style="rounded=0;whiteSpace=wrap;html=1;fontSize=18;fillColor=#d5e8d4;gradientColor=#97d077;strokeColor=#82b366;" vertex="1" parent="WIyWlLk6GJQsqaUBKTNV-1">
          <mxGeometry x="1040" y="655" width="150" height="50" as="geometry" />
        </mxCell>
        <mxCell id="6ciOJ90z9ZoDxSyZLeu0-88" value="经纬度坐标组件" style="rounded=0;whiteSpace=wrap;html=1;fontSize=18;fillColor=#d5e8d4;gradientColor=#97d077;strokeColor=#82b366;" vertex="1" parent="WIyWlLk6GJQsqaUBKTNV-1">
          <mxGeometry x="1040" y="720" width="150" height="50" as="geometry" />
        </mxCell>
      </root>
    </mxGraphModel>
  </diagram>
</mxfile>
